<svg width="32" height="27" viewBox="0 0 32 27" fill="none" xmlns="http://www.w3.org/2000/svg">
<g filter="url(#filter0_d_4102_393)">
<path d="M27.0612 10.9388C27.201 11.0781 27.312 11.2437 27.3877 11.426C27.4634 11.6084 27.5024 11.8038 27.5024 12.0013C27.5024 12.1987 27.4634 12.3942 27.3877 12.5765C27.312 12.7588 27.201 12.9244 27.0612 13.0638L17.0612 23.0638C16.9218 23.2036 16.7563 23.3146 16.5739 23.3903C16.3916 23.466 16.1961 23.5049 15.9987 23.5049C15.8013 23.5049 15.6058 23.466 15.4235 23.3903C15.2411 23.3146 15.0756 23.2036 14.9362 23.0638L4.9362 13.0638C4.79667 12.9242 4.68599 12.7586 4.61047 12.5763C4.53496 12.394 4.49609 12.1986 4.49609 12.0013C4.49609 11.8039 4.53496 11.6085 4.61047 11.4262C4.68599 11.2439 4.79667 11.0783 4.9362 10.9388C5.07573 10.7992 5.24137 10.6885 5.42367 10.613C5.60598 10.5375 5.80137 10.4987 5.9987 10.4987C6.19602 10.4987 6.39141 10.5375 6.57372 10.613C6.75602 10.6885 6.92167 10.7992 7.0612 10.9388L15.9999 19.875L24.9387 10.935C25.0782 10.7958 25.2439 10.6854 25.4261 10.6103C25.6083 10.5351 25.8036 10.4966 26.0007 10.497C26.1978 10.4973 26.393 10.5365 26.5749 10.6123C26.7569 10.6881 26.9221 10.799 27.0612 10.9388ZM14.9362 13.0638C15.0756 13.2036 15.2411 13.3146 15.4235 13.3903C15.6058 13.466 15.8013 13.5049 15.9987 13.5049C16.1961 13.5049 16.3916 13.466 16.5739 13.3903C16.7563 13.3146 16.9218 13.2036 17.0612 13.0638L27.0612 3.06376C27.2007 2.92423 27.3114 2.75858 27.3869 2.57628C27.4624 2.39398 27.5013 2.19858 27.5013 2.00126C27.5013 1.80393 27.4624 1.60854 27.3869 1.42624C27.3114 1.24393 27.2007 1.07829 27.0612 0.938759C26.9217 0.799229 26.756 0.688548 26.5737 0.613036C26.3914 0.537523 26.196 0.498657 25.9987 0.498657C25.8014 0.498657 25.606 0.537523 25.4237 0.613036C25.2414 0.688548 25.0757 0.799229 24.9362 0.938759L15.9999 9.87501L7.0612 0.938759C6.7794 0.656966 6.39721 0.498657 5.9987 0.498657C5.60018 0.498657 5.21799 0.656966 4.9362 0.938759C4.6544 1.22055 4.49609 1.60274 4.49609 2.00126C4.49609 2.39977 4.6544 2.78197 4.9362 3.06376L14.9362 13.0638Z" fill="#878EA1"/>
</g>
<defs>
<filter id="filter0_d_4102_393" x="0.496094" y="0.498657" width="31.0063" height="31.0063" filterUnits="userSpaceOnUse" color-interpolation-filters="sRGB">
<feFlood flood-opacity="0" result="BackgroundImageFix"/>
<feColorMatrix in="SourceAlpha" type="matrix" values="0 0 0 0 0 0 0 0 0 0 0 0 0 0 0 0 0 0 127 0" result="hardAlpha"/>
<feOffset dy="4"/>
<feGaussianBlur stdDeviation="2"/>
<feComposite in2="hardAlpha" operator="out"/>
<feColorMatrix type="matrix" values="0 0 0 0 0 0 0 0 0 0 0 0 0 0 0 0 0 0 0.25 0"/>
<feBlend mode="normal" in2="BackgroundImageFix" result="effect1_dropShadow_4102_393"/>
<feBlend mode="normal" in="SourceGraphic" in2="effect1_dropShadow_4102_393" result="shape"/>
</filter>
</defs>
</svg>
